<?xml version="1.0" encoding="UTF-8" standalone="no"?>
<!DOCTYPE svg PUBLIC "-//W3C//DTD SVG 1.1//EN"
 "http://www.w3.org/Graphics/SVG/1.1/DTD/svg11.dtd">
<!-- Generated by graphviz version 8.0.4 (20230421.1958)
 -->
<!-- Title: G Pages: 1 -->
<svg width="1567pt" height="529pt"
 viewBox="0.00 0.00 1566.88 528.64" xmlns="http://www.w3.org/2000/svg" xmlns:xlink="http://www.w3.org/1999/xlink">
<g id="graph0" class="graph" transform="scale(1 1) rotate(0) translate(4 524.64)">
<title>G</title>
<polygon fill="white" stroke="none" points="-4,4 -4,-524.64 1562.88,-524.64 1562.88,4 -4,4"/>
<!-- e1 -->
<g id="node1" class="node">
<title>e1</title>
<text text-anchor="middle" x="278" y="-497.62" font-family="Helvetica,sans-Serif" font-size="12.00">Sbar[decl]</text>
</g>
<!-- e3 -->
<g id="node2" class="node">
<title>e3</title>
<text text-anchor="middle" x="278" y="-425.62" font-family="Helvetica,sans-Serif" font-size="12.00">S[v:1&lt;1&gt;][term|attr&lt;6&gt;]</text>
</g>
<!-- e1&#45;&gt;e3 -->
<g id="edge1" class="edge">
<title>e1&#45;&gt;e3</title>
<path fill="none" stroke="black" d="M278,-484.7C278,-473.69 278,-459.41 278,-448.43"/>
</g>
<!-- e5 -->
<g id="node3" class="node">
<title>e5</title>
<text text-anchor="middle" x="66" y="-281.62" font-family="Helvetica,sans-Serif" font-size="12.00">T1/(T1\NP[ga|o|ni|+])</text>
</g>
<!-- e3&#45;&gt;e5 -->
<g id="edge2" class="edge">
<title>e3&#45;&gt;e5</title>
<path fill="none" stroke="black" d="M279,-411.64C279,-411.64 153.51,-338.59 95.17,-304.63"/>
</g>
<!-- e9 -->
<g id="node5" class="node">
<title>e9</title>
<text text-anchor="middle" x="413" y="-353.62" font-family="Helvetica,sans-Serif" font-size="12.00">S[v:1&lt;1&gt;][term|attr&lt;6&gt;]\NP[ni]</text>
</g>
<!-- e3&#45;&gt;e9 -->
<g id="edge4" class="edge">
<title>e3&#45;&gt;e9</title>
<path fill="none" stroke="black" d="M279,-411.64C279,-411.64 330.37,-391.71 369.49,-376.53"/>
</g>
<!-- e7 -->
<g id="node4" class="node">
<title>e7</title>
<polygon fill="#d3d3d3" stroke="#d3d3d3" points="54,-16.64 0,-16.64 0,0 54,0 54,-16.64"/>
<text text-anchor="middle" x="27" y="-3.27" font-family="Times,serif" font-size="14.00">pro</text>
</g>
<!-- e5&#45;&gt;e7 -->
<g id="edge3" class="edge">
<title>e5&#45;&gt;e7</title>
<path fill="none" stroke="black" d="M63.62,-268.77C56.14,-215.81 33.33,-54.15 28.08,-16.99"/>
</g>
<!-- e11 -->
<g id="node6" class="node">
<title>e11</title>
<text text-anchor="middle" x="413" y="-209.62" font-family="Helvetica,sans-Serif" font-size="12.00">S[v:5:k|v:5:s|v:5:t|+&lt;2&gt;][neg|cont|term|+&lt;3&gt;]&lt;1&gt;/S[v:5:k|v:5:s|v:5:t|+&lt;2&gt;][neg|cont|term|+&lt;3&gt;]&lt;1&gt;</text>
</g>
<!-- e9&#45;&gt;e11 -->
<g id="edge5" class="edge">
<title>e9&#45;&gt;e11</title>
<path fill="none" stroke="black" d="M428,-339.64C428,-339.64 419.16,-266.59 415.05,-232.63"/>
</g>
<!-- e27 -->
<g id="node14" class="node">
<title>e27</title>
<text text-anchor="middle" x="855" y="-281.62" font-family="Helvetica,sans-Serif" font-size="12.00">S[v:1&lt;1&gt;][term|attr&lt;6&gt;]\NP[ni]</text>
</g>
<!-- e9&#45;&gt;e27 -->
<g id="edge13" class="edge">
<title>e9&#45;&gt;e27</title>
<path fill="none" stroke="black" d="M428,-339.64C428,-339.64 645.01,-313.22 769.62,-298.04"/>
</g>
<!-- e13 -->
<g id="node7" class="node">
<title>e13</title>
<text text-anchor="middle" x="108" y="-137.62" font-family="Helvetica,sans-Serif" font-size="12.00">T1/(T1\NP[nc])</text>
</g>
<!-- e11&#45;&gt;e13 -->
<g id="edge6" class="edge">
<title>e11&#45;&gt;e13</title>
<path fill="none" stroke="black" d="M405,-195.64C405,-195.64 164,-160.64 164,-160.64 164,-160.64 160.28,-159.51 154.75,-157.84"/>
</g>
<!-- e23 -->
<g id="node12" class="node">
<title>e23</title>
<text text-anchor="middle" x="452" y="-137.62" font-family="Helvetica,sans-Serif" font-size="12.00">S[v:5:k|v:5:s|v:5:t|+&lt;2&gt;][neg|cont|term|+&lt;3&gt;]&lt;1&gt;/S[v:5:k|v:5:s|v:5:t|+&lt;2&gt;][neg|cont|term|+&lt;3&gt;]&lt;1&gt;\NP[nc]</text>
</g>
<!-- e11&#45;&gt;e23 -->
<g id="edge11" class="edge">
<title>e11&#45;&gt;e23</title>
<path fill="none" stroke="black" d="M405,-195.64C405,-195.64 423.13,-175.58 436.87,-160.38"/>
</g>
<!-- e15 -->
<g id="node8" class="node">
<title>e15</title>
<text text-anchor="middle" x="108" y="-65.62" font-family="Helvetica,sans-Serif" font-size="12.00">T1/(T1\NP[nc])/N</text>
</g>
<!-- e13&#45;&gt;e15 -->
<g id="edge7" class="edge">
<title>e13&#45;&gt;e15</title>
<path fill="none" stroke="black" d="M117,-123.64C117,-123.64 113.53,-103.58 110.9,-88.38"/>
</g>
<!-- e19 -->
<g id="node10" class="node">
<title>e19</title>
<text text-anchor="middle" x="206" y="-65.62" font-family="Helvetica,sans-Serif" font-size="12.00">N</text>
</g>
<!-- e13&#45;&gt;e19 -->
<g id="edge9" class="edge">
<title>e13&#45;&gt;e19</title>
<path fill="none" stroke="black" d="M117,-123.64C117,-123.64 153.08,-102.56 179.3,-87.25"/>
</g>
<!-- e17 -->
<g id="node9" class="node">
<title>e17</title>
<polygon fill="#d3d3d3" stroke="#d3d3d3" points="135,-15.89 81,-15.89 81,-0.75 135,-0.75 135,-15.89"/>
<text text-anchor="middle" x="108" y="-2.52" font-family="Times,serif" font-size="14.00">∃ </text>
</g>
<!-- e15&#45;&gt;e17 -->
<g id="edge8" class="edge">
<title>e15&#45;&gt;e17</title>
<path fill="none" stroke="black" d="M108,-52.84C108,-40.71 108,-24.96 108,-16.12"/>
</g>
<!-- e21 -->
<g id="node11" class="node">
<title>e21</title>
<polygon fill="#d3d3d3" stroke="#d3d3d3" points="233,-15.89 179,-15.89 179,-0.75 233,-0.75 233,-15.89"/>
<text text-anchor="middle" x="206" y="-2.52" font-family="Times,serif" font-size="14.00">女性</text>
</g>
<!-- e19&#45;&gt;e21 -->
<g id="edge10" class="edge">
<title>e19&#45;&gt;e21</title>
<path fill="none" stroke="black" d="M206,-52.84C206,-40.71 206,-24.96 206,-16.12"/>
</g>
<!-- e25 -->
<g id="node13" class="node">
<title>e25</title>
<polygon fill="#d3d3d3" stroke="#d3d3d3" points="479,-15.89 425,-15.89 425,-0.75 479,-0.75 479,-15.89"/>
<text text-anchor="middle" x="452" y="-2.52" font-family="Times,serif" font-size="14.00">と</text>
</g>
<!-- e23&#45;&gt;e25 -->
<g id="edge12" class="edge">
<title>e23&#45;&gt;e25</title>
<path fill="none" stroke="black" d="M452,-124.89C452,-95.68 452,-36.62 452,-16.35"/>
</g>
<!-- e29 -->
<g id="node15" class="node">
<title>e29</title>
<text text-anchor="middle" x="855" y="-209.62" font-family="Helvetica,sans-Serif" font-size="12.00">T1/(T1\NP[ga])</text>
</g>
<!-- e27&#45;&gt;e29 -->
<g id="edge14" class="edge">
<title>e27&#45;&gt;e29</title>
<path fill="none" stroke="black" d="M865,-267.64C865,-267.64 861.14,-247.58 858.22,-232.38"/>
</g>
<!-- e45 -->
<g id="node23" class="node">
<title>e45</title>
<text text-anchor="middle" x="1108" y="-137.62" font-family="Helvetica,sans-Serif" font-size="12.00">S[v:1&lt;1&gt;][term|attr]\NP[ni]\NP[ga]</text>
</g>
<!-- e27&#45;&gt;e45 -->
<g id="edge22" class="edge">
<title>e27&#45;&gt;e45</title>
<path fill="none" stroke="black" d="M865,-267.64C865,-267.64 1008.17,-194.59 1074.72,-160.63"/>
</g>
<!-- e31 -->
<g id="node16" class="node">
<title>e31</title>
<text text-anchor="middle" x="796" y="-137.62" font-family="Helvetica,sans-Serif" font-size="12.00">T1/(T1\NP[nc])</text>
</g>
<!-- e29&#45;&gt;e31 -->
<g id="edge15" class="edge">
<title>e29&#45;&gt;e31</title>
<path fill="none" stroke="black" d="M856,-195.64C856,-195.64 832.85,-175.58 815.31,-160.38"/>
</g>
<!-- e41 -->
<g id="node21" class="node">
<title>e41</title>
<text text-anchor="middle" x="928" y="-137.62" font-family="Helvetica,sans-Serif" font-size="12.00">T1/(T1\NP[ga])\NP[nc]</text>
</g>
<!-- e29&#45;&gt;e41 -->
<g id="edge20" class="edge">
<title>e29&#45;&gt;e41</title>
<path fill="none" stroke="black" d="M856,-195.64C856,-195.64 883.77,-175.58 904.82,-160.38"/>
</g>
<!-- e33 -->
<g id="node17" class="node">
<title>e33</title>
<text text-anchor="middle" x="728" y="-65.62" font-family="Helvetica,sans-Serif" font-size="12.00">T1/(T1\NP[nc])/N</text>
</g>
<!-- e31&#45;&gt;e33 -->
<g id="edge16" class="edge">
<title>e31&#45;&gt;e33</title>
<path fill="none" stroke="black" d="M793,-123.64C793,-123.64 767.93,-103.58 748.92,-88.38"/>
</g>
<!-- e37 -->
<g id="node19" class="node">
<title>e37</title>
<text text-anchor="middle" x="826" y="-65.62" font-family="Helvetica,sans-Serif" font-size="12.00">N</text>
</g>
<!-- e31&#45;&gt;e37 -->
<g id="edge18" class="edge">
<title>e31&#45;&gt;e37</title>
<path fill="none" stroke="black" d="M793,-123.64C793,-123.64 805.73,-103.58 815.38,-88.38"/>
</g>
<!-- e35 -->
<g id="node18" class="node">
<title>e35</title>
<polygon fill="#d3d3d3" stroke="#d3d3d3" points="755,-15.89 701,-15.89 701,-0.75 755,-0.75 755,-15.89"/>
<text text-anchor="middle" x="728" y="-2.52" font-family="Times,serif" font-size="14.00">∃ </text>
</g>
<!-- e33&#45;&gt;e35 -->
<g id="edge17" class="edge">
<title>e33&#45;&gt;e35</title>
<path fill="none" stroke="black" d="M728,-52.84C728,-40.71 728,-24.96 728,-16.12"/>
</g>
<!-- e39 -->
<g id="node20" class="node">
<title>e39</title>
<polygon fill="#d3d3d3" stroke="#d3d3d3" points="853,-15.89 799,-15.89 799,-0.75 853,-0.75 853,-15.89"/>
<text text-anchor="middle" x="826" y="-2.52" font-family="Times,serif" font-size="14.00">男性</text>
</g>
<!-- e37&#45;&gt;e39 -->
<g id="edge19" class="edge">
<title>e37&#45;&gt;e39</title>
<path fill="none" stroke="black" d="M826,-52.84C826,-40.71 826,-24.96 826,-16.12"/>
</g>
<!-- e43 -->
<g id="node22" class="node">
<title>e43</title>
<polygon fill="#d3d3d3" stroke="#d3d3d3" points="955,-15.89 901,-15.89 901,-0.75 955,-0.75 955,-15.89"/>
<text text-anchor="middle" x="928" y="-2.52" font-family="Times,serif" font-size="14.00">が</text>
</g>
<!-- e41&#45;&gt;e43 -->
<g id="edge21" class="edge">
<title>e41&#45;&gt;e43</title>
<path fill="none" stroke="black" d="M928,-124.89C928,-95.68 928,-36.62 928,-16.35"/>
</g>
<!-- e47 -->
<g id="node24" class="node">
<title>e47</title>
<text text-anchor="middle" x="1085" y="-65.62" font-family="Helvetica,sans-Serif" font-size="12.00">S[v:1][stem|neg|cont|+]\NP[ni]\NP[ga]</text>
</g>
<!-- e45&#45;&gt;e47 -->
<g id="edge23" class="edge">
<title>e45&#45;&gt;e47</title>
<path fill="none" stroke="black" d="M1118,-123.64C1118,-123.64 1105.27,-103.58 1095.62,-88.38"/>
</g>
<!-- e51 -->
<g id="node26" class="node">
<title>e51</title>
<text text-anchor="middle" x="1384" y="-65.62" font-family="Helvetica,sans-Serif" font-size="12.00">S[v:5:k|v:5:s|v:5:t|+&lt;1&gt;][term|attr]\S[v:5:k|v:5:s|v:5:t|+&lt;1&gt;][euph:t]</text>
</g>
<!-- e45&#45;&gt;e51 -->
<g id="edge25" class="edge">
<title>e45&#45;&gt;e51</title>
<path fill="none" stroke="black" d="M1118,-123.64C1118,-123.64 1219.65,-103.77 1297.27,-88.6"/>
</g>
<!-- e49 -->
<g id="node25" class="node">
<title>e49</title>
<polygon fill="#d3d3d3" stroke="#d3d3d3" points="1112,-15.89 1058,-15.89 1058,-0.75 1112,-0.75 1112,-15.89"/>
<text text-anchor="middle" x="1085" y="-2.52" font-family="Times,serif" font-size="14.00">い</text>
</g>
<!-- e47&#45;&gt;e49 -->
<g id="edge24" class="edge">
<title>e47&#45;&gt;e49</title>
<path fill="none" stroke="black" d="M1085,-52.84C1085,-40.71 1085,-24.96 1085,-16.12"/>
</g>
<!-- e53 -->
<g id="node27" class="node">
<title>e53</title>
<polygon fill="#d3d3d3" stroke="#d3d3d3" points="1411,-15.89 1357,-15.89 1357,-0.75 1411,-0.75 1411,-15.89"/>
<text text-anchor="middle" x="1384" y="-2.52" font-family="Times,serif" font-size="14.00">た</text>
</g>
<!-- e51&#45;&gt;e53 -->
<g id="edge26" class="edge">
<title>e51&#45;&gt;e53</title>
<path fill="none" stroke="black" d="M1384,-52.84C1384,-40.71 1384,-24.96 1384,-16.12"/>
</g>
</g>
</svg>
